<svg width="696" height="287" viewBox="0 0 696 287" fill="none" xmlns="http://www.w3.org/2000/svg">
<path d="M32.467 107.054L25.5075 95.9694L34.602 94.141L32.467 107.054Z" fill="#F7C521"/>
<path d="M28.5 8C36.5079 8.00004 42.9997 13.6861 43 20.7002C43 27.7146 36.1331 51.752 28.125 51.752C20.1171 51.7514 14 27.7145 14 20.7002C14.0003 13.686 20.4921 8 28.5 8ZM28.4717 15.6816C24.5059 15.6816 21.291 18.8965 21.291 22.8623C21.291 26.8281 24.5059 30.043 28.4717 30.043C32.4374 30.0429 35.6523 26.828 35.6523 22.8623C35.6523 18.8966 32.4373 15.6817 28.4717 15.6816Z" fill="#FAFAFA"/>
<path d="M33.3535 21.75H23.6465L28.5 17.3369L33.3535 21.75Z" fill="#FAFAFA" stroke="#001C44" stroke-width="0.5"/>
<rect x="26.6667" y="22" width="0.916667" height="1" fill="#FAFAFA"/>
<path d="M32.1664 27H29.7221V24.3828H27.2778V27H24.8325V21.7646H32.1664V27ZM29.4721 27H27.5278V24.6328H29.4721V27ZM25.7504 25H26.6664V23H25.7504V25ZM30.3334 23V25H31.2504V23H30.3334Z" fill="#FAFAFA"/>
<rect x="148" y="185" width="1" height="1" fill="#D9D9D9"/>
<path d="M552.5 218C560.508 218 567 223.686 567 230.7C567 237.715 560.133 261.752 552.125 261.752C544.117 261.752 538 237.714 538 230.7C538 223.686 544.492 218 552.5 218ZM552.472 225.682C548.506 225.682 545.291 228.897 545.291 232.862C545.291 236.828 548.506 240.043 552.472 240.043C556.437 240.043 559.652 236.828 559.652 232.862C559.652 228.897 556.437 225.682 552.472 225.682Z" fill="#FAFAFA"/>
<path d="M556 237H553V235H552V237H549V228H556V237ZM550 236H551V235H550V236ZM554 235V236H555V235H554ZM550 234H551V233H550V234ZM552 234H553V233H552V234ZM554 234H555V233H554V234ZM550 232H551V231H550V232ZM552 232H553V231H552V232ZM554 232H555V231H554V232ZM550 230H551V229H550V230ZM552 230H553V229H552V230ZM554 230H555V229H554V230Z" fill="#FAFAFA"/>
<path d="M416.5 8C424.508 8.00009 431 13.6861 431 20.7002C431 27.7145 424.133 51.752 416.125 51.752C408.117 51.7516 402 27.7145 402 20.7002C402 13.686 408.492 8 416.5 8ZM416.472 15.6816C412.506 15.6816 409.291 18.8965 409.291 22.8623C409.291 26.828 412.506 30.043 416.472 30.043C420.437 30.0428 423.652 26.8279 423.652 22.8623C423.652 18.8966 420.437 15.6818 416.472 15.6816Z" fill="#FAFAFA"/>
<path d="M420 27H417V25H416V27H413V18H420V27ZM414 26H415V25H414V26ZM418 25V26H419V25H418ZM414 24H415V23H414V24ZM416 24H417V23H416V24ZM418 24H419V23H418V24ZM414 22H415V21H414V22ZM416 22H417V21H416V22ZM418 22H419V21H418V22ZM414 20H415V19H414V20ZM416 20H417V19H416V20ZM418 20H419V19H418V20Z" fill="#FAFAFA"/>
<path d="M662.5 82C670.508 82 677 87.6861 677 94.7002C677 101.715 670.133 125.752 662.125 125.752C654.117 125.751 648 101.714 648 94.7002C648 87.686 654.492 82 662.5 82ZM662.472 89.6816C658.506 89.6816 655.291 92.8965 655.291 96.8623C655.291 100.828 658.506 104.043 662.472 104.043C666.437 104.043 669.652 100.828 669.652 96.8623C669.652 92.8966 666.437 89.6817 662.472 89.6816Z" fill="#FAFAFA"/>
<path d="M667.354 95.75H657.646L662.5 91.3369L667.354 95.75Z" fill="#FAFAFA" stroke="#001C44" stroke-width="0.5"/>
<rect x="660.667" y="96" width="0.916667" height="1" fill="#FAFAFA"/>
<path d="M666.166 101H663.722V98.3828H661.278V101H658.832V95.7646H666.166V101ZM663.472 101H661.528V98.6328H663.472V101ZM659.75 99H660.666V97H659.75V99ZM664.333 97V99H665.25V97H664.333Z" fill="#FAFAFA"/>
<path d="M28.3831 56.6786C13.1413 158.4 143 205 143 205" stroke="#F7C521" stroke-width="2" stroke-dasharray="6 8"/>
<path d="M404.5 30.5C281.551 -58.6001 298.971 260.623 163.5 215.5" stroke="#F7C521" stroke-width="2" stroke-dasharray="6 8"/>
<path d="M212.606 214.308L203.45 223.66L199.551 215.242L212.606 214.308Z" fill="#F7C521"/>
<path d="M449.538 103.125L443.755 91.3835L452.989 90.4995L449.538 103.125Z" fill="#F7C521"/>
<path d="M279.538 127.113L277.792 140.084L269.634 135.669L279.538 127.113Z" fill="#F7C521"/>
<path d="M253.49 176.963L250.582 189.724L242.855 184.592L253.49 176.963Z" fill="#F7C521"/>
<path d="M426.5 44.9999C486.5 87 392 281 538.447 261.775" stroke="#F7C521" stroke-width="2" stroke-dasharray="6 8"/>
<path d="M562.5 260.5C644.015 238.446 665.46 204.241 664.5 129.5" stroke="#F7C521" stroke-width="2" stroke-dasharray="6 8"/>
<path d="M64.2977 156.167L53.1967 149.234L60.5802 143.618L64.2977 156.167Z" fill="#F7C521"/>
<path d="M111.501 190.616L98.7752 187.556L104 179.891L111.501 190.616Z" fill="#F7C521"/>
<path d="M303.946 75.3395L302.772 88.3749L294.427 84.3229L303.946 75.3395Z" fill="#F7C521"/>
<path d="M334.684 26.6336L328.932 38.3902L322.585 31.625L334.684 26.6336Z" fill="#F7C521"/>
<path d="M386.89 19.3165L373.829 20.164L376.548 11.2949L386.89 19.3165Z" fill="#F7C521"/>
<path d="M449.79 160.456L444.826 148.346L454.1 148.097L449.79 160.456Z" fill="#F7C521"/>
<path d="M454.585 214.907L448.281 203.437L457.466 202.14L454.585 214.907Z" fill="#F7C521"/>
<path d="M489.266 260.079L476.694 256.442L482.262 249.023L489.266 260.079Z" fill="#F7C521"/>
<path d="M546.165 260.141L535.715 268.022L533.117 259.117L546.165 260.141Z" fill="#F7C521"/>
<path d="M664.495 151.378L668.257 163.914L659.004 163.259L664.495 151.378Z" fill="#F7C521"/>
<path d="M651.512 205.751L649.109 218.617L641.185 213.793L651.512 205.751Z" fill="#F7C521"/>
<path d="M610.512 242.551L601.946 252.446L597.539 244.283L610.512 242.551Z" fill="#F7C521"/>
<path d="M149.5 174C157.508 174 164 179.686 164 186.7C164 193.715 157.133 217.752 149.125 217.752C141.117 217.752 135 193.714 135 186.7C135 179.686 141.492 174 149.5 174ZM149.472 181.682C145.506 181.682 142.291 184.897 142.291 188.862C142.291 192.828 145.506 196.043 149.472 196.043C153.437 196.043 156.652 192.828 156.652 188.862C156.652 184.897 153.437 181.682 149.472 181.682Z" fill="#FAFAFA"/>
<path d="M153 193H150V191H149V193H146V184H153V193ZM147 192H148V191H147V192ZM151 191V192H152V191H151ZM147 190H148V189H147V190ZM149 190H150V189H149V190ZM151 190H152V189H151V190ZM147 188H148V187H147V188ZM149 188H150V187H149V188ZM151 188H152V187H151V188ZM147 186H148V185H147V186ZM149 186H150V185H149V186ZM151 186H152V185H151V186Z" fill="#FAFAFA"/>
</svg>
